<svg width="175" height="33" viewBox="0 0 175 33" fill="none" xmlns="http://www.w3.org/2000/svg">
<path fill-rule="evenodd" clip-rule="evenodd" d="M62.4401 2.79756C62.4401 1.15974 63.6882 0 65.3859 0V0.00154221C67.118 0.00154221 68.3646 1.12735 68.3615 2.79756C68.3615 4.57109 66.9787 5.62904 65.3859 5.62904C63.6929 5.62904 62.4401 4.46931 62.4401 2.79756ZM76.159 11.053C77.13 8.69957 79.1393 7.36865 81.7375 7.36865V7.37019C85.7215 7.37019 87.9032 10.1677 87.9157 13.9909V24.632H82.7476V14.637C82.7476 12.8666 81.7437 11.9413 79.9412 11.9413C77.8974 11.9413 76.6853 13.4758 76.6853 15.5917V24.632H71.5171V7.67555H76.159V11.053ZM67.9903 24.632H62.8222V7.67709H67.9903V24.632ZM54.4373 7.67709H60.5702L53.7733 15.6256L60.7002 24.632H54.2917L48.956 17.433V24.632H43.7879V2.66031H48.956V14.398L54.4373 7.67709ZM155.654 14.4956C155.783 14.5416 155.914 14.5885 156.048 14.637C159.406 15.8646 161.521 16.8193 161.51 19.8559C161.51 23.2672 158.772 24.905 155.516 24.905C153.203 24.905 151.02 24.2573 149.565 23.1994L150.777 20.8106C152.192 21.6743 153.825 22.1242 155.49 22.1075C157.013 22.1075 158.399 21.5616 158.399 20.061C158.399 18.6744 156.973 18.1956 155.159 17.5865L155.111 17.5704C151.889 16.4445 149.914 15.4205 149.914 12.5551C149.914 9.51848 152.652 7.64316 156.01 7.64316C157.674 7.64316 159.302 8.08577 160.932 8.93861L159.858 11.4292C158.852 10.8494 157.26 10.4407 156.081 10.4407C154.314 10.4407 152.997 11.0206 152.997 12.35C152.997 13.5451 154.145 13.9558 155.654 14.4956ZM174.754 7.91613V10.6443H168.832V19.074C168.832 21.1204 170.002 22.0767 171.881 22.0767C172.872 22.057 173.848 21.8476 174.757 21.4598V24.191C173.579 24.7031 172.713 24.9082 171.534 24.9082C167.655 24.9082 165.749 22.6565 165.749 18.9722V10.6443H162.63V7.91613H165.749V3.48075H168.83V7.91613H174.754ZM107.647 7.67709H102.938V9.27481C101.865 8.0796 100.305 7.36402 98.4352 7.36402C93.7227 7.36402 90.6047 11.3213 90.6047 16.4723C90.6047 21.2145 93.1652 24.626 97.8087 24.626C99.6786 24.626 101.48 23.9489 102.588 22.3126V23.7454C102.588 26.4657 100.996 28.3164 98.2926 28.3164C96.6052 28.2836 94.9565 27.8128 93.5129 26.9516L91.3987 30.7037C93.2013 32.0007 96.0406 32.7857 98.6387 32.7857C104.358 32.7857 107.647 29.3743 107.647 23.3351V7.67709ZM99.7161 11.4292C100.756 11.4292 101.622 11.7022 102.592 12.3855V17.1262C102.592 18.9691 101.414 20.7766 99.4046 20.7766C97.0491 20.7766 95.7666 18.8657 95.7666 16.1376C95.7666 15.1891 95.9059 14.364 96.252 13.647C96.8754 12.2143 98.1235 11.4292 99.7161 11.4292ZM139.59 24.9097C144.267 24.9097 147.628 21.1869 147.628 16.2734C147.628 11.4292 144.303 7.64316 139.59 7.63699C134.914 7.63699 131.519 11.3615 131.519 16.2734C131.519 21.0881 134.811 24.9097 139.59 24.9097ZM139.585 10.3713C142.571 10.3713 144.44 12.9298 144.44 16.2734C144.44 19.4811 142.709 22.1753 139.585 22.1753C136.607 22.1753 134.701 19.6168 134.701 16.2734C134.701 13.067 136.468 10.3713 139.585 10.3713ZM114.647 11.9752H125.353L125.359 2.66031H128.476V24.632H125.353V14.8745H114.647V24.632H111.529V2.66031H114.647V11.9752Z" fill="white"/>
<path d="M32.8566 6.51581C33.9392 6.68134 35.0069 6.86434 36.0593 7.06484L29.6883 26.9516C26.6298 25.2675 22.533 24.2419 18.0319 24.2419C13.5311 24.2419 9.42944 25.2675 6.37243 26.9516L0 7.06638C1.0545 6.86589 2.12415 6.68288 3.20893 6.51735C4.87368 10.9219 6.9002 13.505 9.08803 13.505C11.445 13.505 13.6219 10.5009 15.3524 5.44707C15.8771 3.91874 16.3609 2.19918 16.7994 0.319236C17.2066 0.319236 17.6159 0.316661 18.0272 0.311525C18.4386 0.306389 18.8479 0.308951 19.2551 0.319236C19.6488 2.0516 20.1317 3.76308 20.7022 5.44707C22.4374 10.5009 24.6095 13.505 26.9665 13.505C29.1606 13.505 31.1903 10.9219 32.8566 6.51581Z" fill="#FFBF00"/>
</svg>
